<?xml version="1.0" encoding="utf-8"?>
<!-- Generator: Adobe Illustrator 15.0.0, SVG Export Plug-In  -->
<!DOCTYPE svg PUBLIC "-//W3C//DTD SVG 1.1//EN" "http://www.w3.org/Graphics/SVG/1.1/DTD/svg11.dtd" [
	<!ENTITY ns_flows "http://ns.adobe.com/Flows/1.0/">
]>
<svg version="1.1"
	 xmlns="http://www.w3.org/2000/svg" xmlns:xlink="http://www.w3.org/1999/xlink" xmlns:a="http://ns.adobe.com/AdobeSVGViewerExtensions/3.0/"
	 x="0px" y="0px" width="724px" height="216px" viewBox="-0.533 -0.57 724 216"
	 overflow="visible" enable-background="new -0.533 -0.57 724 216" xml:space="preserve">
<defs>
</defs>
<path fill="#1D7ABF" d="M117.462,67.874c9.502,26.306,38.541,39.929,64.84,30.424c26.315-9.504,39.931-38.537,30.432-64.845
	c-9.51-26.305-38.535-39.93-64.85-30.427C121.582,12.529,107.958,41.564,117.462,67.874z"/>
<path fill="#1D7ABF" d="M52.999,161.794c-9.939,17.586-3.742,39.897,13.842,49.838c17.586,9.945,39.909,3.743,49.845-13.842
	c9.936-17.588,3.742-39.903-13.848-49.844C85.255,138.007,62.933,144.205,52.999,161.794z"/>
<path fill="#1D7ABF" d="M0.421,90.796c-2.31,11.461,5.107,22.631,16.569,24.947c11.461,2.313,22.636-5.103,24.943-16.563
	c2.32-11.466-5.098-22.638-16.562-24.951C13.907,71.913,2.738,79.333,0.421,90.796z"/>
<path d="M315.991,110.879c-2.079,0-3.004-0.926-3.351-2.888L300.04,35.167c-0.347-1.85,0.462-2.888,2.543-2.888h10.75
	c2.081,0,2.658,1.038,3.006,2.888l6.357,39.3c0.925,5.896,0.809,16.646,0.809,16.762c0.116-0.577,3.006-11.675,5.086-16.646
	l16.067-39.417c0.809-1.85,1.732-2.888,3.813-2.888h10.288c1.966,0,2.543,1.038,1.734,2.888l-30.516,72.824
	c-0.809,1.962-1.849,2.888-3.93,2.888H315.991z"/>
<path d="M393.332,32.278c1.965,0,2.773,0.922,3.12,2.888l12.715,72.824c0.347,1.847-0.347,2.888-2.428,2.888h-10.171
	c-2.081,0-2.774-1.041-3.122-2.888l-2.312-14.103h-21.5l-5.78,14.103c-0.692,1.847-1.618,2.888-3.698,2.888h-9.593
	c-1.966,0-2.659-1.041-1.85-2.888l30.517-72.824c0.809-1.966,1.965-2.888,3.929-2.888H393.332z M387.089,68.687
	c-1.041-6.008-0.926-21.152-0.926-21.152c-0.115,0.461-3.814,15.953-6.01,21.037l-5.549,12.948h14.681L387.089,68.687z"/>
<path d="M437.957,80.939l-3.236,26.935c-0.232,2.079-1.041,3.004-3.122,3.004h-10.056c-1.618,0-2.89-0.577-2.543-3.004l9.016-72.592
	c0.23-2.083,1.156-3.004,3.12-3.004h23.466c18.957,0,26.471,8.207,26.471,17.684c0,0.693,0,1.734-0.116,2.659L479.8,62.679
	c-0.81,6.934-4.74,13.29-14.565,16.298l8.67,28.898c0.578,1.847-1.04,3.004-3.006,3.004h-9.939c-1.851,0-2.197-1.387-2.66-3.004
	l-8.091-26.935h-0.231H437.957z M442.464,45.224l-2.89,22.771h11.56c7.975,0,12.715-2.311,13.523-8.091l0.693-4.739
	c0.116-0.925,0.116-1.618,0.116-2.082c0-5.086-3.469-7.859-11.213-7.859H442.464z"/>
<path d="M544.192,107.991c-0.232,1.962-0.926,2.888-3.006,2.888h-8.67c-1.618,0-2.195-0.461-2.657-1.387L512.173,71.23
	c-1.272-2.888-2.774-6.934-3.469-9.477l-5.664,46.237c-0.23,1.962-0.925,2.888-3.006,2.888h-9.13c-2.081,0-2.775-0.926-2.543-2.888
	l8.899-72.824c0.232-1.966,1.155-2.888,3.236-2.888h8.67c1.388,0,2.08,0.345,2.427,1.154l18.379,39.88
	c1.041,2.311,2.429,6.008,2.89,8.091l5.665-46.237c0.23-1.966,1.155-2.888,3.12-2.888h9.133c2.08,0,2.657,0.922,2.427,2.888
	L544.192,107.991z"/>
<path d="M576.335,107.875c-0.232,2.079-1.041,3.004-3.122,3.004h-10.056c-1.966,0-2.775-0.926-2.543-3.004l9.016-72.592
	c0.23-2.083,1.156-3.004,3.121-3.004h10.057c2.081,0,2.658,0.922,2.428,3.004L576.335,107.875z"/>
<path d="M635.868,52.273c0.114-0.925,0.114-0.809,0.114-1.154c0-4.854-3.583-7.282-10.518-7.282c-7.398,0-11.56,2.772-12.137,8.436
	l-0.116,1.157c-0.116,1.041-0.116,1.386-0.116,1.85c0,3.121,2.081,4.162,3.932,4.854l19.071,7.166
	c7.63,2.891,11.906,8.091,11.906,15.027c0,0.577-0.116,1.734-0.23,2.772l-0.81,7.862c-1.041,9.709-8.207,18.842-29.36,18.842
	c-18.842,0-26.009-7.976-26.009-16.878c0-0.461,0-1.27,0.232-2.772l0.809-6.473c0.23-2.083,1.155-3.007,3.12-3.007h9.711
	c2.081,0,2.658,1.041,2.428,3.007l-0.579,4.391c-0.116,0.925-0.116,1.618-0.116,2.198c0,4.854,4.047,7.05,11.445,7.05
	c7.744,0,12.252-2.66,13.062-8.439l0.462-3.236c0.115-0.809,0.115-1.386,0.115-1.618c0-3.813-4.623-5.78-8.784-7.398l-16.067-6.357
	c-5.779-2.311-9.941-7.282-9.941-13.525c0-0.577,0.116-1.618,0.232-2.772l0.693-5.779c1.155-9.709,7.165-18.841,28.089-18.841
	c18.608,0,24.967,7.975,24.967,16.53c0,0.577,0,1.038-0.116,2.312l-0.462,4.738c-0.23,1.966-1.271,2.892-3.236,2.892h-9.709
	c-1.851,0-2.659-0.696-2.428-2.892L635.868,52.273z"/>
<path d="M679.566,64.065h24.853l3.583-28.782c0.232-2.083,1.156-3.004,3.237-3.004h10.057c1.965,0,2.543,0.922,2.312,3.004
	l-9.017,72.592c-0.23,2.079-0.925,3.004-2.89,3.004h-10.056c-2.08,0-2.775-1.041-2.543-3.004l3.813-30.864h-24.968l-3.813,30.864
	c-0.231,1.963-1.041,3.004-3.121,3.004h-10.056c-1.967,0-2.775-0.926-2.544-3.004l9.017-72.592c0.23-2.083,1.155-3.004,3.12-3.004
	h10.057c2.081,0,2.658,0.922,2.428,3.004L679.566,64.065z"/>
<path d="M325.023,146.271c0.094-0.749,0.094-1.217,0.094-1.404c0-4.114-2.993-6.548-10.478-6.548
	c-8.232,0-11.692,2.807-12.254,7.858l-0.281,2.431c-0.092,0.655-0.092,1.031-0.092,1.217c0,2.713,1.777,3.646,4.022,4.585
	l15.901,6.359c6.361,2.524,9.168,6.269,9.168,11.601c0,0.655,0,1.401-0.094,2.15l-0.748,6.922
	c-0.842,7.67-6.267,14.406-22.451,14.406c-14.498,0-19.642-5.801-19.642-12.628c0-0.282,0-1.217,0.092-2.151l0.562-5.053
	c0.187-1.311,0.748-1.869,1.965-1.869h5.519c1.309,0,1.683,0.652,1.496,1.869l-0.467,3.836c-0.094,0.84-0.094,1.495-0.094,1.777
	c0,4.303,3.274,6.643,11.131,6.643c8.418,0,12.254-2.901,12.909-7.953l0.654-4.77c0.094-0.655,0.094-0.935,0.094-1.217
	c0-3.18-3.274-4.676-7.015-6.175l-13.283-5.331c-5.706-2.337-8.793-6.36-8.793-11.036c0-0.282,0-1.122,0.094-1.966l0.562-4.676
	c0.935-7.671,5.518-14.407,21.607-14.407c14.219,0,18.988,5.802,18.988,12.44c0,0.562,0,1.217-0.092,1.967l-0.469,4.114
	c-0.093,1.217-0.748,1.778-1.963,1.778h-5.519c-1.123,0-1.685-0.373-1.498-1.778L325.023,146.271z"/>
<path d="M346.724,145.148c0.935-7.671,6.36-14.407,22.729-14.407c14.405,0,19.925,5.802,19.925,12.629c0,0.562,0,1.401-0.094,2.151
	l-4.397,35.92c-0.934,7.67-6.453,14.406-22.823,14.406c-14.5,0-19.925-5.707-19.925-12.534c0-0.655,0.094-1.405,0.188-2.245
	L346.724,145.148z M379.931,147.111c0.093-0.655,0.187-1.308,0.187-1.684c0-4.397-3.46-6.922-11.319-6.922
	c-8.138,0-12.44,3.086-13.094,8.139l-4.023,32.834c-0.093,0.651-0.187,1.308-0.187,1.684c0,4.396,3.46,6.921,11.318,6.921
	c8.42,0,12.348-3.086,13.003-8.138L379.931,147.111z"/>
<path d="M441.478,131.491c1.216,0,1.776,0.467,1.59,1.778l-0.561,4.208c-0.188,1.308-0.748,1.778-1.965,1.778h-26.846l-2.433,18.988
	h25.256c1.216,0,1.777,0.468,1.59,1.775l-0.561,4.306c-0.188,1.214-0.748,1.774-1.965,1.774h-25.162l-3.462,27.127
	c-0.187,1.311-0.562,1.872-1.871,1.872h-5.705c-1.216,0-1.777-0.562-1.591-1.872l7.391-59.866c0.187-1.308,0.748-1.869,1.965-1.869
	H441.478z"/>
<path d="M488.901,131.491c1.217,0,1.778,0.467,1.592,1.778l-0.469,4.208c-0.187,1.308-0.748,1.778-1.964,1.778h-14.966
	l-6.736,53.971c-0.187,1.311-0.562,1.872-1.871,1.872h-5.706c-1.215,0-1.776-0.562-1.59-1.872l6.735-53.971h-14.967
	c-1.216,0-1.776-0.471-1.59-1.778l0.467-4.208c0.188-1.312,0.75-1.778,1.965-1.778H488.901z"/>
<path d="M540.348,172.181c0.373,2.807,0.562,8.044,0.562,8.231c0.093-0.282,1.496-5.613,2.524-8.231l14.594-38.911
	c0.467-1.123,1.123-1.778,2.338-1.778h5.145c1.217,0,1.59,0.562,1.123,1.778l-22.544,60.051c-0.467,1.217-1.215,1.778-2.432,1.778
	h-5.612c-1.122,0-1.684-0.655-1.872-1.778l-5.05-39.661c-0.281-2.245-0.468-7.015-0.468-7.389c-0.188,0.468-1.403,5.332-2.151,7.483
	l-14.967,39.566c-0.469,1.217-1.122,1.778-2.339,1.778h-5.612c-1.122,0-1.777-0.655-1.965-1.778l-7.763-60.051
	c-0.188-1.217,0.28-1.778,1.59-1.778h5.799c1.217,0,1.591,0.655,1.778,1.778l5.05,38.911c0.281,2.524,0.562,6.83,0.562,7.298
	c0.094-0.283,1.778-5.332,2.526-7.298l14.686-38.911c0.375-1.123,1.028-1.778,2.338-1.778h5.333c1.215,0,1.684,0.655,1.87,1.778
	L540.348,172.181z"/>
<path d="M593.104,131.491c1.215,0,1.776,0.562,1.963,1.778l10.853,60.051c0.187,1.123-0.281,1.778-1.498,1.778h-5.8
	c-1.215,0-1.776-0.655-1.963-1.778l-2.526-14.498h-19.738l-6.173,14.498c-0.467,1.123-0.935,1.778-2.245,1.778h-5.426
	c-1.309,0-1.59-0.655-1.122-1.778l25.443-60.051c0.562-1.217,1.216-1.778,2.433-1.778H593.104z M589.922,154.503
	c-0.748-4.023-0.935-13.846-0.935-13.846c-0.28,0.841-2.62,9.916-4.21,13.657l-7.39,17.211h15.621L589.922,154.503z"/>
<path d="M624.719,193.227c-0.187,1.311-0.56,1.872-1.87,1.872h-5.706c-1.029,0-1.777-0.373-1.59-1.872l7.39-59.866
	c0.187-1.308,0.748-1.869,1.965-1.869h18.521c14.498,0,19.924,6.08,19.924,13.28c0,0.562,0,1.312-0.093,2.061l-1.028,9.261
	c-0.656,5.704-4.023,10.662-12.535,12.813l8.138,24.32c0.374,1.122-0.561,1.872-1.777,1.872h-5.706
	c-1.123,0-1.403-0.841-1.776-1.872l-7.765-23.291h-13.188L624.719,193.227z M631.456,139.256l-2.9,22.918h11.6
	c8.511,0,12.534-2.528,13.188-7.671l0.749-6.175c0.093-0.655,0.093-1.217,0.093-1.684c0-4.864-3.18-7.389-11.037-7.389H631.456z"/>
<path d="M672.705,195.099c-1.215,0-1.776-0.562-1.59-1.872l7.39-59.866c0.187-1.308,0.748-1.869,1.965-1.869h31.99
	c1.217,0,1.778,0.467,1.59,1.778l-0.561,4.208c-0.187,1.308-0.748,1.778-1.964,1.778h-24.508l-2.339,18.895h22.918
	c1.217,0,1.684,0.467,1.497,1.778l-0.469,4.02c-0.187,1.217-0.748,1.778-1.963,1.778h-22.918l-2.713,21.607h25.536
	c1.31,0,1.871,0.376,1.685,1.684l-0.562,4.303c-0.188,1.311-0.655,1.778-1.965,1.778H672.705z"/>
</svg>
